<?xml version="1.0" encoding="UTF-8"?>
<svg xmlns="http://www.w3.org/2000/svg" xmlns:xlink="http://www.w3.org/1999/xlink" viewBox="0 0 80 80" width="80px" height="80px">
<g id="surface17305536">
<path style=" stroke:none;fill-rule:nonzero;fill:rgb(30.588236%,47.843137%,70.980394%);fill-opacity:1;" d="M 40 57.839844 C 17.195312 57.839844 0 50.171875 0 40 C 0 29.828125 17.195312 22.160156 40 22.160156 C 62.804688 22.160156 80 29.828125 80 40 C 80 50.171875 62.804688 57.839844 40 57.839844 Z M 40 27.160156 C 19.375 27.160156 5 33.925781 5 40 C 5 46.074219 19.375 52.839844 40 52.839844 C 60.625 52.839844 75 46.074219 75 40 C 75 33.925781 60.625 27.160156 40 27.160156 Z M 40 27.160156 "/>
<path style=" stroke:none;fill-rule:nonzero;fill:rgb(30.588236%,47.843137%,70.980394%);fill-opacity:1;" d="M 25.136719 75 C 23.386719 75 21.796875 74.59375 20.398438 73.789062 C 18.125 72.480469 16.484375 70.160156 15.660156 67.074219 C 13.433594 58.761719 17.03125 44.703125 24.824219 31.269531 C 33.960938 15.554688 46.03125 5 54.871094 5 C 56.621094 5 58.210938 5.40625 59.605469 6.210938 C 61.875 7.515625 63.515625 9.835938 64.339844 12.914062 C 66.566406 21.234375 62.96875 35.289062 55.171875 48.726562 C 46.050781 64.441406 33.980469 75 25.136719 75 Z M 54.871094 10 C 49.101562 10 38.125 18.335938 29.148438 33.785156 C 22.101562 45.933594 18.621094 58.796875 20.488281 65.785156 C 20.976562 67.578125 21.78125 68.816406 22.890625 69.453125 C 27.746094 72.246094 40.519531 64.003906 50.84375 46.210938 C 57.898438 34.054688 61.378906 21.195312 59.511719 14.203125 C 59.023438 12.414062 58.21875 11.179688 57.113281 10.546875 C 56.476562 10.179688 55.738281 10 54.871094 10 Z M 54.871094 10 "/>
<path style=" stroke:none;fill-rule:nonzero;fill:rgb(30.588236%,47.843137%,70.980394%);fill-opacity:1;" d="M 54.871094 75 C 46.023438 75 33.953125 64.441406 24.828125 48.730469 C 17.03125 35.300781 13.433594 21.246094 15.660156 12.925781 C 16.484375 9.839844 18.125 7.515625 20.398438 6.210938 C 21.796875 5.40625 23.390625 5 25.136719 5 C 33.976562 5 46.046875 15.558594 55.171875 31.28125 C 62.96875 44.714844 66.566406 58.765625 64.335938 67.085938 C 63.511719 70.171875 61.875 72.488281 59.605469 73.789062 C 58.210938 74.59375 56.613281 75 54.871094 75 Z M 25.136719 10 C 24.265625 10 23.53125 10.179688 22.890625 10.546875 C 21.773438 11.183594 20.96875 12.421875 20.488281 14.21875 C 18.621094 21.210938 22.101562 34.070312 29.15625 46.21875 C 38.121094 61.664062 49.09375 70 54.871094 70 C 55.746094 70 56.476562 69.820312 57.113281 69.453125 C 58.226562 68.820312 59.03125 67.585938 59.511719 65.789062 C 61.386719 58.800781 57.90625 45.941406 50.851562 33.789062 C 41.878906 18.335938 30.90625 10 25.136719 10 Z M 25.136719 10 "/>
<path style=" stroke:none;fill-rule:nonzero;fill:rgb(54.509807%,71.764708%,94.117647%);fill-opacity:1;" d="M 45 40 C 45 42.765625 42.765625 45 40 45 C 37.234375 45 35 42.765625 35 40 C 35 37.234375 37.234375 35 40 35 C 42.765625 35 45 37.234375 45 40 Z M 45 40 "/>
<path style=" stroke:none;fill-rule:nonzero;fill:rgb(30.588236%,47.843137%,70.980394%);fill-opacity:1;" d="M 40 47.5 C 35.863281 47.5 32.5 44.136719 32.5 40 C 32.5 35.863281 35.863281 32.5 40 32.5 C 44.136719 32.5 47.5 35.863281 47.5 40 C 47.5 44.136719 44.136719 47.5 40 47.5 Z M 40 37.5 C 38.625 37.5 37.5 38.621094 37.5 40 C 37.5 41.378906 38.625 42.5 40 42.5 C 41.375 42.5 42.5 41.378906 42.5 40 C 42.5 38.621094 41.375 37.5 40 37.5 Z M 40 37.5 "/>
</g>
</svg>
