<svg id="design" xmlns="http://www.w3.org/2000/svg" viewBox="0 0 200 180"><defs><style>.cls-1{fill:#f4f4f4;}.cls-2{fill:#eaeaea;}.cls-3{fill:#fbb040;}.cls-4{fill:#fff;}.cls-5{fill:#ea7500;}.cls-6{fill:#005eb8;}.cls-7{fill:#fdcda5;}.cls-8{fill:#d1d1d1;}.cls-9{fill:#ed8b00;}.cls-10{fill:none;stroke:#fff;stroke-miterlimit:10;stroke-width:5px;}</style></defs><path class="cls-1" d="M41.74,33.48H196a0,0,0,0,1,0,0v83.18a9.88,9.88,0,0,1-9.88,9.88H51.62a9.88,9.88,0,0,1-9.88-9.88V33.48A0,0,0,0,1,41.74,33.48Z"/><path class="cls-2" d="M188.54,14.72H94L81.24,2.15A7.44,7.44,0,0,0,76,0H49.21a7.47,7.47,0,0,0-7.47,7.46V34.33H196V22.19A7.47,7.47,0,0,0,188.54,14.72Z"/><rect class="cls-3" x="54.94" y="42.41" width="127.87" height="29.95"/><rect class="cls-4" x="55.67" y="80.77" width="36.32" height="24.05"/><rect class="cls-4" x="145.75" y="80.77" width="36.32" height="24.05"/><rect class="cls-4" x="101.44" y="80.77" width="36.32" height="24.05"/><rect class="cls-4" x="55.67" y="108.94" width="36.32" height="5.55"/><rect class="cls-4" x="145.75" y="108.94" width="36.32" height="5.55"/><rect class="cls-4" x="101.44" y="108.94" width="36.32" height="5.55"/><path class="cls-5" d="M115.61,60.87V59.69a4.39,4.39,0,0,1,.55-2.29,5.81,5.81,0,0,1,2-1.81,7.54,7.54,0,0,0,1.61-1.27,2,2,0,0,0,.49-1.3,1,1,0,0,0-.53-.91,2.43,2.43,0,0,0-1.36-.34,10.74,10.74,0,0,0-4.87,1.47l-1.92-3.75a14.34,14.34,0,0,1,7.17-2,7.74,7.74,0,0,1,4.83,1.35,4.41,4.41,0,0,1,1.75,3.69,5.27,5.27,0,0,1-.78,2.89A8,8,0,0,1,122,57.77a9.4,9.4,0,0,0-1.81,1.37,1.57,1.57,0,0,0-.37,1v.7ZM115,65.7a2.55,2.55,0,0,1,.73-2,3.1,3.1,0,0,1,2.18-.69,2.92,2.92,0,0,1,2.11.7,2.51,2.51,0,0,1,.74,2,2.47,2.47,0,0,1-.76,1.94,3,3,0,0,1-2.09.69,3.09,3.09,0,0,1-2.14-.68A2.43,2.43,0,0,1,115,65.7Z"/><g id="_Group_2-2" data-name=" Group 2-2"><g id="_Group_3-2" data-name=" Group 3-2"><path id="_Path_2-2" data-name=" Path 2-2" class="cls-6" d="M95,116.72l-1.42-.1A20.46,20.46,0,0,0,86.05,118L41.71,73.7a20.46,20.46,0,0,0,1.42-7.49L43,64.79A21.58,21.58,0,0,0,21.56,44.64a21.28,21.28,0,0,0-9.21,2.12L26.72,61.14a6.36,6.36,0,0,1,1.62,2.63,7.31,7.31,0,0,1-1.62,7.59,7.15,7.15,0,0,1-5.06,2.13A7.81,7.81,0,0,1,19.13,73a10.19,10.19,0,0,1-2.63-1.62L2.12,57A22.1,22.1,0,0,0,0,66.21,21.57,21.57,0,0,0,20.15,87.67l1.42.1a20.66,20.66,0,0,0,7.49-1.41L73.4,130.7A22.82,22.82,0,0,0,72,138.19l.1,1.41a21.4,21.4,0,0,0,30.67,18L88.38,143.25a6.32,6.32,0,0,1-1.62-2.63A7.31,7.31,0,0,1,88.38,133a7.11,7.11,0,0,1,5.06-2.13,7.6,7.6,0,0,1,2.53.51A6.6,6.6,0,0,1,98.6,133L113,147.41a22,22,0,0,0,2.12-9.22A21.57,21.57,0,0,0,95,116.72Z"/><g id="_Group_4-2" data-name=" Group 4-2"><g id="_Group_5" data-name=" Group 5"><g id="_Group_6" data-name=" Group 6"><path id="_Path_3-2" data-name=" Path 3-2" class="cls-7" d="M87.37,111.15c-2.63-5.57-5.87-5.57-5.87-5.57-2.74-9.21-7.29-9.72-7.29-9.72-2.13-8.1-6.79-6.68-6.79-6.68-.7-10.63-5.87-12.65-9.21-10.73a5.45,5.45,0,0,0-2.63,3.14c-1.82,5.36-2.94,25-4.76,25s-7.8-6.38-7.8-6.38-7.29,18.63-5.17,23.69S56.38,151,56.38,151a13.88,13.88,0,0,0,1.82.1c5.7.51,23.09,1.83,24.8,1,2.13-1,6.38-20.65,6.79-24.49A33.74,33.74,0,0,0,87.37,111.15Z"/><g id="_Group_7" data-name=" Group 7"><polygon id="_Path_4-2" data-name=" Path 4-2" class="cls-2" points="58.1 149.14 48.85 149.14 48.85 180 58.1 180 89.85 180 89.85 149.14 58.1 149.14"/></g><g id="_Group_7-2" data-name=" Group 7"><polygon id="_Path_4-2-2" data-name=" Path 4-2" class="cls-8" points="55.63 164.57 44.35 164.57 44.35 180 55.63 180 94.35 180 94.35 164.57 55.63 164.57"/></g></g></g></g></g></g><path class="cls-9" d="M174.57,98.6h21a4.38,4.38,0,0,0,3.8-6.57L188.88,73.81,178.36,55.58a4.38,4.38,0,0,0-7.59,0L160.25,73.81,149.73,92a4.38,4.38,0,0,0,3.79,6.57Z"/><path class="cls-4" d="M176.84,83.19h-4.52l-.69-12.93h5.9ZM171.68,88a2.54,2.54,0,0,1,.74-1.94,3,3,0,0,1,2.15-.69,2.93,2.93,0,0,1,2.11.69A2.57,2.57,0,0,1,177.4,88a2.48,2.48,0,0,1-.75,1.92,3,3,0,0,1-2.08.69,3,3,0,0,1-2.12-.69A2.46,2.46,0,0,1,171.68,88Z"/><circle class="cls-3" cx="147.44" cy="131.37" r="16.87"/><line class="cls-10" x1="154.44" y1="124.37" x2="140.44" y2="138.37"/><line class="cls-10" x1="140.44" y1="124.37" x2="154.44" y2="138.37"/></svg>